<svg viewBox="0 0 24 24" xml:space="preserve" xmlns="http://www.w3.org/2000/svg" enable-background="new 0 0 24 24"><g id="_icons"><path d="M16.6 4.2c-.5-.3-1.1-.1-1.4.4-.3.5-.1 1.1.4 1.4 2.1 1.3 3.5 3.6 3.5 6 0 3.9-3.1 7-7 7s-7-3.1-7-7c0-2.5 1.4-4.8 3.5-6.1.4-.3.6-.9.3-1.3-.3-.5-.9-.7-1.4-.4C4.7 5.8 3 8.8 3 12c0 5 4 9 9 9s9-4 9-9c0-3.2-1.7-6.1-4.4-7.8z" fill="#ffffff" class="fill-000000"></path><path d="M12 13c.6 0 1-.4 1-1V3c0-.6-.4-1-1-1s-1 .4-1 1v9c0 .6.4 1 1 1z" fill="#ffffff" class="fill-000000"></path></g></svg>